<?xml version="1.0" encoding="utf-8"?>
<!-- Generator: Adobe Illustrator 28.0.0, SVG Export Plug-In . SVG Version: 6.00 Build 0)  -->
<svg version="1.1" id="Слой_1" xmlns="http://www.w3.org/2000/svg" xmlns:xlink="http://www.w3.org/1999/xlink" x="0px" y="0px"
	 viewBox="0 0 1000 499.5033875" style="enable-background:new 0 0 1000 499.5033875;" xml:space="preserve">
<style type="text/css">
	.st0{fill:#000001;}
</style>
<path class="st0" d="M336.740387,144.3376923v-0.0295105V144.3376923z"/>
<path class="st0" d="M599.1520996,180.2632599l0.5048828-11.4477997L568.0561523,198.24617l-0.5049438,11.0502319
	l-24.0856323,22.4470367l-8.0741577,35.7320862l30.8811646-28.9230194l-0.5131226,11.5391083l31.5473022-29.4306183
	l0.5749512-11.5364838l24.2357788-22.1220245l8.0823364-35.7133484L599.1520996,180.2632599z M613.1785889,189.2049561
	l-19.965271,18.1065216l-0.486145,10.7897339l-21.7138672,20.2820587l0.480835-10.8219452l-23.4998779,21.9205933
	l4.1633301-19.6321259l20.0859375-18.5845337l0.4539795-10.3062744l21.6815796-20.1585693l-0.480835,10.8542328
	l23.5536499-22.2402191L613.1785889,189.2049561z"/>
<path class="st0" d="M672.4939575,94.9095612l-0.0565796,1.9822998c1.2033081-2.5785522,5.2889404-11.7378845,7.1798096-10.6688232
	c0,0,2.9331055,1.509491,2.3207397,12.8767853l-2.5356445,2.4523239c-0.2713623,0.2793503-0.5290527,0.7251892-0.5507202,1.0287323
	l-0.2067261,2.3582993c-0.024231,0.2955017,0.1880493,0.3196869,0.4646606,0.0510635l2.5033569-2.414772
	c-0.1182251,1.5632629-1.0476074,4.2170639-2.6430664,6.5727386c-0.2659302,0.3948517-0.1880493,1.5793304-0.0993652,1.6653214
	c0.0375366,0.067131,0.8515015-0.7171631,1.1013794-0.8541336c1.2462769,0.3115692,1.8505859,3.7013016,1.8505859,3.7013016
	l0.2444458-0.220253l0.0160522-0.0080338l0.2524414-0.274025c0,0,2.071106-7.2172852,2.8795166-8.2621613
	c0.2658691-0.3572311,1.0797119-1.1576767,1.1495361-1.3268661c0.0967407-0.2578735,0.4378662-1.8507309,0.1799927-1.7459717
	c-1.4396973,0.5963364-2.022522-0.6097031-1.880249-2.199852l2.4981689-2.4227295
	c0.2819824-0.2659073,0.5317993-0.7252731,0.5504761-1.0233994l0.2095337-2.3529739
	c0.024292-0.2981262-0.171814-0.319603-0.4539185-0.0617218l-2.5409546,2.4550247
	c1.4154663-12.1461868,5.0497437-20.3358841,5.0497437-20.3358841c3.4622803-6.1348572,5.6513672-2.393219,6.5861816-1.8882751
	l0.0778809-0.0161514c0.2120972-0.1020508,0.3491821-0.3921509,0.3248901-0.6688004
	c-0.1181641-2.6913452-0.0321045-8.490448-2.8712769-7.9855118c0,0-2.6699219-0.3787003-6.8412476,10.6822662
	c1.9498901-7.4240875,2.5408936-12.6349716,2.5408936-12.6349716s0.3707275-5.1759605-1.6518555-8.3588867
	c-0.1235962-0.1960716-0.5560913-0.6500282-1.0100098-0.2122231c-0.4511719,0.4324799-1.0368042,1.9151649-1.2489624,2.3878937
	c-3.0620728,6.868084-3.4353638,12.3771706-3.4353638,12.3771706s-0.3654175,5.8823929,0.5344238,10.5720978
	c-2.710083-3.8544235-5.7615356,0.1477966-5.7615356,0.1477966c-4.5285645,6.1617432-4.8052979,11.3886871-4.9799194,14.5206299
	C672.1499634,95.1781769,672.2575073,95.2372818,672.4939575,94.9095612"/>
<path class="st0" d="M719.237793,0.0469271c-0.7600708-0.25247-1.6519165,0.5936323-1.7136841,0.6447001
	c0,0-73.8251953,67.0591354-95.1359253,86.860405c-2.729187,2.4577255-3.2180176,5.2646484-3.2180176,5.2726822
	l-3.1640625,16.6399002l31.1765747-15.8931427L500.0212097,220.6146851l-0.0188599-0.0214844L352.822052,93.5714722
	l31.1872559,15.8931427l-3.1694946-16.6399002c0-0.0080338-0.4968872-2.8149567-3.220459-5.2726822
	c-21.3109131-19.8012695-95.1360779-86.860405-95.1360779-86.860405c-0.059021-0.0510678-0.9588928-0.89717-1.7082825-0.6447001
	c-0.7279053,0.2444368-0.6929626,1.0314381-0.7118225,1.3538291c0,0,3.0163574,29.4870968,5.355957,57.0912437
	c2.7530823,32.4605827,4.6602173,45.9228935,4.6762695,46.0410957c1.165802,7.5933609,5.6245117,20.104805,14.3889771,30.3681183
	c1.6277771,1.9070435,33.6613159,39.9034424,33.9916382,40.2955933l0.2390442,0.287384l1.9097595,13.1292572
	c1.8130188,11.5848541,6.980957,22.0522766,15.3693542,31.1175842c1.1039734,1.1925964,4.0988464,4.4533539,8.3857727,9.1270294
	c21.0905762,22.9762115,71.4802856,77.8220215,86.6858826,93.4653625c2.105835,2.1702881,4.8562622,5.6460266,5.7346802,7.0803528
	c0.8756104,1.4263,2.8094482,5.8501282,3.333252,8.0312195c1.6949768,7.0615234,6.1860046,22.4416504,10.9375305,38.7189331
	l1.0395508,3.5535889c0.0160522,0.0376282,1.2408752,3.7980347,1.8451538,5.1437378
	c1.9580994,4.3191223,3.9968872,6.6317749,4.0317993,6.6801147l21.1146851,24.9020691
	c0.2203369,0.2444458,0.537262,0.397522,0.8890686,0.397522h0.021637c0.3544312,0,0.6687317-0.1530762,0.8916931-0.397522
	l21.1148376-24.9020691c0.0401611-0.0483398,2.0735474-2.3609924,4.0342407-6.6801147
	c0.6044922-1.3457031,1.8319092-5.1061096,1.8427124-5.1437378l1.0368042-3.5535889
	c4.7542725-16.2772827,9.2453003-31.6574097,10.9375-38.7189331c0.5264282-2.1810913,2.4656982-6.6049194,3.3360596-8.0312195
	c0.8756104-1.4343262,3.6234131-4.9100647,5.729248-7.0803528c15.2108154-15.6433411,65.6005249-70.489151,86.6911621-93.4653625
	c4.2922974-4.6736755,7.2845459-7.934433,8.3857422-9.1270294c8.3884277-9.0653076,13.5591431-19.5327301,15.3667603-31.1175842
	l1.909729-13.1292572l0.2390137-0.287384c0.3411865-0.3921509,32.3692627-38.3885498,33.9968872-40.2955933
	c8.7618408-10.2633133,13.2179565-22.7747574,14.3863525-30.3681183c0.0134888-0.1182022,1.9286499-13.580513,4.6817017-46.0410957
	c2.3342285-27.604147,5.3505859-57.0912437,5.3505859-57.0912437C719.9254761,1.0783652,719.9576416,0.2913639,719.237793,0.0469271
	 M334.734375,77.6191406c0,0-2.788147-0.4163284-2.6430664,2.5114212c0.0134583,0.3680496,0.1021423,1.6519547,0.2283936,3.6208115
	l0.0080261,0.0053253l5.5520325,67.9213867c-15.1276855-15.8797913-27.7225037-29.7207947-30.0539246-32.3343506
	c-6.8842163-7.7303314-7.7626343-16.8574524-7.7626343-16.8574524l-7.92099-82.7239075
	c0,0,34.3864136,31.9608917,69.1166077,64.2495117l0.1368713,0.0483627L334.734375,77.6191406z M484.3643188,374.5584412
	c0,0-0.7090454-1.0072632-0.8862915-1.396759c-0.1799927-0.3974915-0.3519592-0.913208-0.4996643-1.6868286
	c-1.9956665-10.2954712-10.0565186-51.0128174-11.1603394-54.9290466c-0.4701843-1.6841431-0.7977295-3.0942688-1.7566223-5.0631409
	c-1.506958-3.102356-3.7363892-5.2511597-3.7363892-5.2511597s-99.0334778-98.147049-106.2077332-105.6061401
	c-10.0805969-10.4781494-10.6098022-23.741684-10.6098022-23.741684l-6.9648743-79.788208
	c0,0,122.3749695,107.1802216,133.658905,117.2124634c4.0372009,3.591217,6.7687988,7.1286621,8.4287109,10.5936432
	c2.9976807,6.2422791,2.8634033,11.5686646,2.8634033,11.5686646l6.6907959,150.803772L484.3643188,374.5584412z
	 M650.4998779,176.8836823c0,0-0.5264282,13.2635345-10.6096802,23.741684
	c-7.1743774,7.4590912-106.2052002,105.6061401-106.2052002,105.6061401s-2.2321167,2.1488037-3.7362671,5.2511597
	c-0.9588623,1.9688721-1.2919922,3.3789978-1.7620239,5.0631409c-1.0957642,3.9162292-9.1620483,44.6335754-11.1577148,54.9290466
	c-0.1450806,0.7736206-0.3168945,1.2893372-0.5023193,1.6868286c-0.1745605,0.3894958-0.8809814,1.396759-0.8809814,1.396759
	l-9.8201294,12.7155762l6.6936035-150.803772c0,0-0.1449585-5.3263855,2.8553467-11.5686646
	c1.6625366-3.4649811,4.3914795-7.0024261,8.4313354-10.5936432
	c11.2919922-10.0322418,133.6643066-117.2124634,133.6643066-117.2124634L650.4998779,176.8836823z M699.9468994,102.4862823
	c0,0-0.8809814,9.127121-7.7680054,16.8574524c-2.3233643,2.6135559-14.9182129,16.4545593-30.0485229,32.3343506
	l5.552063-67.9213867l0.0106201-0.0053253c0.1236572-1.9688568,0.2042847-3.2527618,0.225769-3.6208115
	c0.1396484-2.9277496-2.6404419-2.5114212-2.6404419-2.5114212l-26.6613159,6.4411011l0.1314697-0.0483627
	c34.7329712-32.2886162,69.1167603-64.2495117,69.1167603-64.2495117L699.9468994,102.4862823z"/>
<path class="st0" d="M438.1547546,184.3590851l1.6464844,31.0692291l-47.3491211-43.3094177l-1.8694153-29.3903809
	L438.1547546,184.3590851z M350.4347229,162.0436096l-2.6591187-30.7306671l44.6765137,40.8355408l1.9689636,30.9616699
	L350.4347229,162.0436096z M396.3924561,233.5883942l-1.9526978-30.4217682l46.9489136,43.8680115l1.6976318,32.901001
	L396.3924561,233.5883942z M441.4049072,247.0238495l-1.5902405-31.549881l45.8664246,41.9045105l1.480072,32.4282837
	L441.4049072,247.0238495z"/>
<polygon class="st0" points="331.3122559,116.1788406 300.9681702,86.6675644 297.7531128,56.5278168 329.7139893,86.2459106 
	332.405426,117.5326691 "/>
<polygon class="st0" points="330.1107483,58.4909325 353.0976257,79.8233337 331.3676758,74.5667953 "/>
<path class="st0" d="M134.6247253,499.3629456c-5.4930115,0-9.1700592-1.5149536-10.3653564-4.2653809
	c-0.9777527-2.2697144-0.1988678-5.210907,2.2427139-8.5147095l2.3584671-3.1936646
	c2.1407471-2.9009094,4.619873-6.269165,6.6048737-8.9095459c4.6441345-6.1670532,9.6641846-11.2758789,24.155304-11.2758789
	h79.4309845c4.0075531,0,6.6638947,0.1960754,8.6113586,0.6526794c2.7988129,0.6446533,4.6441345,1.7835083,5.4848328,3.3763428
	c0.6124878,1.1630249,0.6849518,2.5382996,0.1960754,4.0827637c-0.5613403,1.7861633-2.3233795,4.1633301-3.2768707,5.4391479
	c-0.040329,0.0456543-5.1061249,6.9245605-8.2837982,11.222229c-4.6118469,6.2261658-9.6507416,11.3860168-24.6146698,11.3860168
	H134.6247253z M160.896698,471.2537231c-2.8714447,0-5.3023682,1.1523132-6.8466949,3.2420349l-3.7362366,5.0336304
	c-2.0951691,2.817627-4.1445923,5.5761719-5.9522247,8.0365601c-0.7710114,1.0502319-1.0503693,2.0870361-0.7467499,2.7853699
	c0.2765656,0.6312256,1.0179138,0.9642944,2.1461639,0.9642944h70.5079651c3.6904907,0,5.2430115-0.741333,7.233429-3.4273376
	c1.4718781-1.9984131,3.3655548-4.5608521,5.0818634-6.9031067c1.979599-2.6886597,3.7362213-5.0657959,4.4024811-5.95755
	c0.7923279-1.0744324,1.0743103-2.0413818,0.7788849-2.7262878c-0.2900085-0.6607666-1.0985718-1.0476074-2.207962-1.0476074
	H160.896698z"/>
<path class="st0" d="M10.7657604,499.3572998c-5.4767942,0-9.1567898-1.512207-10.3519239-4.2573242
	c-0.9805343-2.2616272-0.2123043-5.2028198,2.2373099-8.5120239c2.8955355-3.9349976,6.9809585-9.4708862,8.9605522-12.105835
	c4.4723244-5.9414978,9.6777954-11.278595,24.1500626-11.278595h89.7586365c0.5882263,0,1.0100479,0.2202454,1.1738281,0.6150818
	c0.1906586,0.4163513,0.0644226,0.9428101-0.3357544,1.4960938c-0.650032,0.9024963-2.420105,3.2930603-3.1157074,4.2117004
	c-0.7467575,0.996521-2.0978012,1.7190552-3.204567,1.7190552c0,0-71.5258865,0.0107422-82.9952393,0.0107422
	c-2.8766823,0-5.3076077,1.1549683-6.8519363,3.2393188c-1.2490711,1.6921997-2.5491276,3.4381104-3.8303299,5.1705933
	c-2.0520554,2.7612305-4.0747662,5.4875183-5.85009,7.9049683c-0.7736397,1.0448303-1.0529957,2.0870056-0.7467537,2.7799988
	c0.2685375,0.6312256,1.0179138,0.9642944,2.1487827,0.9642944h82.9550705c0.7977371,0,1.0877533,0.3894653,1.1925125,0.6231689
	c0.1772156,0.4163208,0.0509872,0.9454651-0.3572311,1.4907532c-0.2900085,0.3840637-0.7870865,1.0609436-1.3215332,1.7861633
	c-0.6795349,0.9159546-1.3994064,1.8990173-1.7915497,2.4147644c-0.7413483,0.9857788-2.1246872,1.7270813-3.209816,1.7270813
	H10.7657604z"/>
<path class="st0" d="M881.7385864,499.3626709c-5.4822388,0-9.1594238-1.512207-10.3493042-4.2626953
	c-0.9831543-2.2670288-0.2121582-5.2055054,2.2320557-8.517395c2.1218872-2.879364,6.8306274-9.258667,8.9579468-12.1031799
	c4.4747925-5.9414673,9.6804199-11.2758789,24.1687622-11.2758789h91.9932861c0.5856323,0,1.0046387,0.2175293,1.1790771,0.6123962
	c0.1747437,0.4109497,0.0619507,0.9427795-0.3410034,1.4961243c-0.652832,0.8971252-2.420105,3.2903442-3.1102905,4.2143555
	c-0.7790527,1.0152893-2.0977783,1.7190552-3.2233887,1.7190552l-85.2353516,0.0080261
	c-2.8712769,0-5.2994385,1.1523132-6.8519287,3.2420349l-1.8078003,2.4523621h89.2938843
	c0.5881958,0,1.0098877,0.2229309,1.1793823,0.6257935c0.1852417,0.4190369,0.06427,0.9428406-0.3331299,1.4826965
	l-3.1240845,4.2117004c-0.7114868,0.96698-2.1164551,1.7190552-3.2096558,1.7190552h-89.7478027l-2.2052002,2.9814758
	c-0.5747681,0.9293518-0.7467041,1.821106-0.4512939,2.4308472c0.2954102,0.5989685,1.0341187,0.9159241,2.1300659,0.9159241
	h85.203186c0.7977905,0,1.0875854,0.3814087,1.1817017,0.6177979c0.1878662,0.4109497,0.053772,0.9454651-0.3439331,1.4880371
	c-0.3518066,0.4700623-1.0151367,1.3725586-1.6623535,2.2455139c-0.5721436,0.7709045-1.1229858,1.5283508-1.4558105,1.963501
	c-0.7387085,0.9830627-2.1194458,1.7163391-3.2017822,1.7163391L881.7385864,499.3626709z"/>
<path class="st0" d="M517.0880127,499.3626709c-5.4876099,0-9.1648254-1.512207-10.3547058-4.2626953
	c-0.9777527-2.2670288-0.2149353-5.2055054,2.2320557-8.517395l0.8918457-1.2033081
	c2.3448792-3.1910095,6.1966858-8.4072571,8.0715027-10.8998718c4.472168-5.9414673,9.6830444-11.2758789,24.15271-11.2758789
	h92.0041504c0.5881958,0,1.0098877,0.2175293,1.1898804,0.6123962c0.1771851,0.4109497,0.053772,0.9427795-0.3465576,1.4961243
	c-0.65271,0.8971252-2.4307861,3.2903442-3.1157227,4.2116699c-0.7574463,0.996521-2.1004639,1.7217407-3.2098389,1.7217407
	l-85.2515259,0.0080261c-2.8712769,0-5.2994385,1.1523132-6.8358765,3.2420349l-1.8238525,2.4523621h89.3074341
	c0.5856323,0,1.0072632,0.2229309,1.1790771,0.6257935c0.1800537,0.4190369,0.053772,0.9482117-0.3544312,1.4880676
	l-3.1078491,4.2063293c-0.7144165,0.969635-2.1298828,1.7190552-3.2124023,1.7190552h-89.788147l-1.8883057,2.5785522
	c-0.7762451,1.0502319-1.0529785,2.0870667-0.7573853,2.7854004c0.2793579,0.6312256,1.0286865,0.9642944,2.1594238,0.9642944
	h85.2059937c0.7977295,0,1.085144,0.3867798,1.1870728,0.6177979c0.1774292,0.4216919,0.0511475,0.9454651-0.3491821,1.4907227
	l-1.3241577,1.7835083c-0.6741333,0.9159241-1.4020386,1.8990173-1.7941895,2.422821
	c-0.741333,0.9830627-2.1220703,1.7163391-3.21521,1.7163391L517.0880127,499.3626709z"/>
<path class="st0" d="M672.4967041,499.3572998c-0.7979126,0-1.1013184-0.3088684-1.2302246-0.572113
	c-0.1181641-0.2713013-0.1504517-0.7628479,0.3894043-1.5337219c0.5023193-0.7386475,11.8076782-15.9844666,18.4960327-25.012207
	c0.3060913-0.4028625,0.3624878-0.6607666,0.3114624-0.7655029c-0.0402832-0.112793-0.2632446-0.228302-0.7547607-0.228302
	h-43.2044678c-0.6286011,0-1.0341797-0.1880493-1.2061768-0.5667419c-0.1262207-0.2767029-0.1665649-0.7628784,0.3626709-1.5337219
	c0.4110107-0.5909119,1.3081055-1.7888794,2.1032104-2.849884c0.3921509-0.5264587,0.7547607-1.0072327,1.0152588-1.3644714
	c0.8031616-1.0770874,1.998291-1.7271118,3.2070312-1.7271118h104.4727173c0.7789307,0,1.085144,0.3303833,1.2059937,0.6097107
	c0.171936,0.4082642,0.0402832,0.940094-0.3787231,1.509552l-3.107666,4.2036133
	c-0.7871094,1.0582886-2.0171509,1.7190552-3.21521,1.7190552H710.689209c-0.9482422,0-1.8748779,0.5049438-2.5222778,1.3859558
	c-4.0370483,5.4526062-17.5074463,23.6584473-18.4986572,24.9988098c-0.8272095,1.1281128-1.9446411,1.7270813-3.2150269,1.7270813
	H672.4967041z"/>
<path class="st0" d="M791.371521,499.3572998c-0.795105,0-1.0959473-0.3088684-1.2141113-0.5694275
	c-0.1288452-0.2739868-0.1665649-0.7655334,0.3760376-1.5364075c0.5238037-0.7520752,12.4362793-16.8332825,17.5342407-23.6987305
	l0.9671021-1.3134766c0.2980347-0.4028625,0.3544312-0.6607666,0.3060303-0.7655029
	c-0.0481567-0.112793-0.2658691-0.228302-0.7573853-0.228302h-43.2018433c-0.6286011,0-1.0368042-0.1880493-1.2059937-0.5667419
	c-0.1316528-0.2767029-0.1693115-0.7628784,0.3624878-1.5337219c0.4083862-0.596283,1.3430176-1.8291626,2.1381226-2.903595
	l0.9884033-1.3107605c0.795105-1.0770874,1.993042-1.7271118,3.2072144-1.7271118h104.461853
	c0.7789307,0,1.0825195,0.3303833,1.2113647,0.6097107c0.1665649,0.4082642,0.0403442,0.940094-0.3867188,1.509552
	l-3.0996094,4.2036133c-0.7871094,1.0582886-2.017334,1.7190552-3.2178955,1.7190552H829.574646
	c-0.9642944,0-1.8828125,0.5049438-2.5302734,1.3859558l-18.5039062,24.9988098
	c-0.8300171,1.1281128-1.9366455,1.7270813-3.2097778,1.7270813H791.371521z"/>
<path class="st0" d="M386.5722046,466.2724915c-1.0289001-2.0386658-3.8678589-3.07547-8.4234924-3.07547h-93.8520813
	c-1.1280823,0-2.4496155,0.7091064-3.2098083,1.7136841c-0.8702087,1.1523132-2.5786438,3.4488525-4.7031555,6.3201904
	l88.9500732,0.0161133c0.9697266,0,1.592865,0.1880493,1.8078003,0.5533447
	c0.1503296,0.2632141,0.1073608,0.6634216-0.139679,1.1952515c-0.2390442,0.4996033-1.853363,2.5221558-2.38797,3.1748962
	c-0.9938354,1.1952515-1.7727051,1.6948853-4.0505066,1.6948853h-7.8539734v-0.0053711l-81.2277527-0.0053711
	c-3.3280334,4.5044556-6.9191589,9.3580627-9.8469849,13.3306885l-4.4641418,6.0542908
	c-0.3921509,0.5318298-0.5183716,1.0985718-0.341156,1.5095215c0.1235962,0.2793579,0.4216614,0.6070251,1.168396,0.6070251
	h13.1186218c1.1011963,0,2.4871521-0.743988,3.2150574-1.7243958c1.4880981-1.9984131,5.0175781-6.7687378,8.6759338-11.7190857
	h28.9712524c8.8425293,2.7719727,23.9405518,8.1225281,36.4492798,12.2294312
	c2.2268372,0.7332458,7.6847839,1.2194214,9.6159973,1.2194214h18.4824524c1.2330017,0,1.7997437-0.5935974,1.9017029-1.1146851
	c0.112793-0.5210876-0.1932678-1.165741-1.1065979-1.4343262c-14.214386-4.2143555-21.1549988-5.9494934-26.2799988-7.7652893
	c-3.3978271-1.1979675-6.6425781-1.8076477-11.0180054-3.134552h14.7650757v-0.0053711h9.0570984
	c6.7339172,0,12.3557739-2.0091553,15.43396-5.5251465c2.5758362-2.9358215,5.1249695-6.1402283,6.5243835-8.4985657
	C386.5264587,470.6560974,387.5927429,468.2950745,386.5722046,466.2724915"/>
<path class="st0" d="M512.2272949,463.0594788h-12.1946106c-1.941864,0-3.5240784,0.3894958-5.127594,1.2543945
	c-0.6955872,0.3787231-54.7061462,26.5190735-55.2433777,26.8225708c-0.5103455,0.2820435-1.308075,0.48349-2.1164856,0.5372009
	h-7.1824341c-0.4244385-0.8219299-4.0263977-9.2344971-7.0991516-16.151001
	c-2.3556824-5.2941589-4.5716858-10.2955322-4.7031555-10.6715698c-0.370697-1.0717163-1.4290771-1.7915955-2.6242371-1.7915955
	h-14.0130615c-0.7868958,0-1.4880981,0.3277283-1.8720398,0.8783569c-0.2767334,0.4082642-0.3439331,0.8783264-0.1854248,1.2973633
	c0.1182251,0.284668,1.8587646,4.0505066,4.700531,10.1746216c3.8947754,8.3857117,9.2290955,19.8684692,9.7637024,21.2141418
	c0.9615173,2.420105,3.0888367,2.879425,6.6881714,2.879425h17.3704224c3.4837646,0,5.6138611-0.7225342,8.4020081-2.2186584
	c1.3052979-0.6956787,65.3883972-31.7594299,65.8235168-31.9904785c0.6096802-0.3384094,1.197876-0.9347229,1.0931396-1.5068359
	C513.631958,463.3066406,513.1216431,463.0594788,512.2272949,463.0594788"/>
</svg>
