<?xml version="1.0" encoding="UTF-8"?>
<svg id="Layer_2" data-name="Layer 2" xmlns="http://www.w3.org/2000/svg" viewBox="0 0 160 78">
  <defs>
    <style>
      .cls-1 {
        fill: #fff;
      }
    </style>
  </defs>
  <g id="_Слой_1" data-name="Слой 1">
    <g>
      <path class="cls-1" d="M131.97,57.5c-1.4,0-2.02,1.29-2.12,2.25h4.05c.01-.88-.36-2.25-1.92-2.25Z"/>
      <path class="cls-1" d="M72.12,57.5c-1.4,0-2.02,1.29-2.13,2.25h4.04c.02-.88-.36-2.25-1.92-2.25Z"/>
      <path class="cls-1" d="M98.75,57.54c-1.64,0-2.35,1.51-2.35,2.96,0,1.67.96,2.92,2.31,2.92s2.31-1.24,2.31-2.96c0-1.29-.64-2.93-2.28-2.93Z"/>
      <path class="cls-1" d="M113.88,33.55c-3.5,0-5.04,3.23-5.31,5.62h10.11c.04-2.2-.9-5.62-4.8-5.62Z"/>
      <path class="cls-1" d="M160,2.62V0H39.67c0,2.9-2.35,5.24-5.25,5.24s-5.24-2.35-5.24-5.24H0v2.62c1.97,0,2.95,1.32,2.95,2.95s-.98,2.95-2.95,2.95v2.46c1.97,0,2.95,1.32,2.95,2.95s-.98,2.95-2.95,2.95v2.46c1.97,0,2.95,1.32,2.95,2.95s-.98,2.95-2.95,2.95v2.46c1.97,0,2.95,1.32,2.95,2.95s-.98,2.95-2.95,2.95v2.46c1.97,0,2.95,1.32,2.95,2.95s-.98,2.95-2.95,2.95v2.46c1.97,0,2.95,1.32,2.95,2.95s-.98,2.95-2.95,2.95v2.46c1.97,0,2.95,1.32,2.95,2.95s-.98,2.95-2.95,2.95v2.46c1.97,0,2.95,1.32,2.95,2.95s-.98,2.95-2.95,2.95v2.46c1.97,0,2.95,1.32,2.95,2.95s-.98,2.95-2.95,2.95v2.62h29.35c-.11-.42-.17-.86-.17-1.31,0-2.9,2.35-5.24,5.24-5.24s5.25,2.35,5.25,5.24c0,.45-.06.89-.17,1.31h120.5v-2.62c-1.31,0-2.95-1.32-2.95-2.95s1.64-2.95,2.95-2.95v-2.46c-1.31,0-2.95-1.32-2.95-2.95s1.64-2.95,2.95-2.95v-2.46c-1.31,0-2.95-1.32-2.95-2.95s1.64-2.95,2.95-2.95v-2.46c-1.31,0-2.95-1.32-2.95-2.95s1.64-2.95,2.95-2.95v-2.46c-1.31,0-2.95-1.32-2.95-2.95s1.64-2.95,2.95-2.95v-2.46c-1.31,0-2.95-1.32-2.95-2.95s1.64-2.95,2.95-2.95v-2.46c-1.31,0-2.95-1.32-2.95-2.95s1.64-2.95,2.95-2.95v-2.46c-1.31,0-2.95-1.32-2.95-2.95s1.64-2.95,2.95-2.95v-2.46c-1.31,0-2.95-1.32-2.95-2.95s1.64-2.95,2.95-2.95ZM21.42,50.54h-3.46v-19.04h3.46v19.04ZM19.61,28.28c-1.22,0-2.09-.95-2.09-2.12s.9-2.16,2.16-2.16,2.13.95,2.13,2.16c.04,1.18-.83,2.12-2.2,2.12ZM35.41,68.82v.66h-1.33v-7.21h.68v.66h.65v5.9ZM35.41,57.68v.66h-1.33v-7.21h.68v.66h.65v5.9ZM35.41,46.54v.66h-1.33v-7.21h.68v.66h.65v5.9ZM35.41,35.4v.66h-1.33v-7.21h.68v.66h.65v5.9ZM35.41,24.25v.66h-1.33v-7.21h.68v.66h.65v5.9ZM35.41,13.11v.66h-1.33v-7.21h.68v.66h.65v5.9ZM79.37,31.12c2.05,0,3.86.51,4.8.98l-.79,2.67c-.83-.47-2.12-.9-4.02-.9-4.37,0-6.73,3.23-6.73,7.2,0,4.4,2.83,7.12,6.61,7.12,1.97,0,3.27-.51,4.25-.94l.59,2.6c-.9.47-2.91,1.1-5.47,1.1-5.74,0-9.48-3.89-9.48-9.72s4.01-10.11,10.23-10.11ZM58.95,26.95h-8.11v23.6h-3.46v-23.6h-8.07v-2.91h19.63v2.91ZM64.78,50.54h-3.46v-19.04h3.46v19.04ZM62.96,28.28c-1.22,0-2.08-.95-2.08-2.12s.9-2.16,2.16-2.16,2.12.95,2.12,2.16c.04,1.18-.83,2.12-2.2,2.12ZM75.33,60.74h-5.35c.03,1.87,1.23,2.64,2.61,2.64.99,0,1.59-.17,2.11-.39l.24.99c-.49.22-1.32.47-2.53.47-2.35,0-3.75-1.54-3.75-3.84s1.35-4.11,3.57-4.11c2.49,0,3.15,2.19,3.15,3.59,0,.28-.03.5-.05.64ZM79.52,64.37l-.44.71c.58.08,1.1.49,1.1,1.08,0,.93-.76,1.27-1.64,1.27-.38,0-.8-.11-1.07-.27l.24-.68c.25.16.57.24.85.24.35,0,.68-.12.68-.5-.02-.41-.49-.6-1.23-.66l.63-1.12c-.8-.02-1.56-.2-2.08-.52l.35-1.06c.41.27,1.13.55,1.83.55,1.01,0,1.48-.5,1.48-1.13s-.39-1.02-1.42-1.4c-1.37-.49-2.01-1.24-2.01-2.16,0-1.23.99-2.23,2.63-2.23.77,0,1.45.22,1.87.47l-.35,1.01c-.3-.19-.85-.44-1.56-.44-.82,0-1.27.47-1.27,1.04,0,.63.46.91,1.45,1.29,1.32.5,2,1.16,2,2.3s-.72,1.97-2.03,2.2ZM86.97,57.73h-1.98v4.1c0,.95.27,1.48,1.04,1.48.36,0,.63-.05.8-.1l.06,1.04c-.27.11-.69.19-1.23.19-.65,0-1.17-.2-1.5-.58-.39-.41-.53-1.09-.53-1.98v-4.15h-1.18v-1.05h1.18v-1.83l1.35-.36v2.19h1.98v1.06ZM89.92,64.29h-1.39v-7.61h1.39v7.61ZM89.19,55.39c-.49,0-.83-.38-.83-.85s.36-.87.86-.87.85.38.85.87c.02.47-.33.85-.88.85ZM98.65,64.47c-2.06,0-3.65-1.51-3.65-3.92,0-2.55,1.67-4.04,3.78-4.04s3.67,1.59,3.67,3.92c0,2.82-1.95,4.04-3.79,4.04ZM99.91,50.54l-6.57-9.12-1.77,1.97v7.16h-3.42v-27.92h3.42v17.62h.08c.47-.67,1.14-1.49,1.69-2.16l5.59-6.57h4.17l-7.36,7.83,8.38,11.21h-4.21ZM110.67,64.29h-1.38v-4.39c0-1.23-.46-2.25-1.76-2.25-.91,0-1.62.65-1.86,1.42-.06.17-.09.41-.09.65v4.58h-1.39v-5.55c0-.79-.02-1.43-.06-2.06h1.23l.08,1.26h.03c.38-.72,1.26-1.43,2.52-1.43,1.05,0,2.69.63,2.69,3.24v4.55ZM114.31,64.29h-1.39v-11.17h1.39v11.17ZM105.22,41.34c0-5.74,3.38-10.27,8.93-10.27,6.22,0,7.87,5.47,7.87,8.97,0,.71-.08,1.26-.12,1.61h-13.38c.08,4.68,3.07,6.61,6.53,6.61,2.48,0,3.98-.43,5.27-.98l.59,2.48c-1.22.55-3.31,1.18-6.33,1.18-5.86,0-9.36-3.85-9.36-9.6ZM118.02,64.29h-1.39v-7.61h1.39v7.61ZM117.3,55.39c-.49,0-.84-.38-.84-.85s.36-.87.87-.87.85.38.85.87c.02.47-.33.85-.88.85ZM126.8,64.29h-1.38v-4.39c0-1.23-.46-2.25-1.76-2.25-.91,0-1.62.65-1.86,1.42-.06.17-.1.41-.1.65v4.58h-1.38v-5.55c0-.79-.02-1.43-.06-2.06h1.23l.08,1.26h.03c.38-.72,1.26-1.43,2.52-1.43,1.05,0,2.69.63,2.69,3.24v4.55ZM135.18,60.74h-5.35c.03,1.87,1.23,2.64,2.61,2.64.99,0,1.59-.17,2.11-.39l.24.99c-.49.22-1.32.47-2.54.47-2.35,0-3.74-1.54-3.74-3.84s1.35-4.11,3.57-4.11c2.49,0,3.15,2.19,3.15,3.59,0,.28-.03.5-.04.64ZM135.44,34.14h-4.96v10.27c0,2.36.67,3.7,2.6,3.7.91,0,1.57-.12,2.01-.24l.16,2.6c-.67.28-1.73.47-3.07.47-1.61,0-2.91-.51-3.74-1.46-.98-1.02-1.34-2.71-1.34-4.96v-10.38h-2.95v-2.63h2.95v-4.56l3.38-.9v5.47h4.96v2.63Z"/>
    </g>
  </g>
</svg>