<?xml version="1.0" encoding="UTF-8"?><svg id="uuid-5a4fe584-13c7-48ee-ad0b-a4ffcd4f6949" xmlns="http://www.w3.org/2000/svg" viewBox="0 0 1084.09 412.2">
<title>PFL logo - Brandlogos.net</title><g id="uuid-5af484fa-9b9c-4021-b0b1-ee2c339a635b"><g id="uuid-eaa620cd-6071-417f-afca-47b3f8e0887d"><path d="M88.33,291.24l67.79,67.27h106.93c44.72,0,80.97-36.25,80.97-80.97s-36.25-80.97-80.97-80.97H0v215.63h88.32v-148.33h160.77c7.56,0,13.68,6.13,13.68,13.68s-6.13,13.68-13.68,13.68H88.32M461.4,263.85h255.69v-67.28h-344.01v215.63h88.32v-148.35Z" style="fill:#ed2124;"/><path d="M461.4,291.23l67.79,67.26h0s187.9.01,187.9.01v-67.27h-255.69Z" style="fill:#ed2124;"/><path id="uuid-77320eba-d781-4379-b571-8e123fcd3bc6" d="M751.83,344.88l67.79,67.27h264.47v-67.28h-243.93v-148.25h-88.33v148.26Z" style="fill:#ed2124;"/></g><path id="uuid-e2c2a624-9ea7-4fba-bc08-c96a9a76fa7b" d="M426.54,162l-55.19-112.93,80.07,32.52c-.38,2.1-.61,4.26-.61,6.47,0,19.9,16.13,36.03,36.03,36.03s36.03-16.13,36.03-36.03c0-17.95-13.14-32.79-30.32-35.53L545.08,0l52.53,52.53c-17.18,2.74-30.32,17.58-30.32,35.53,0,19.9,16.13,36.03,36.03,36.03s36.03-16.13,36.03-36.03c0-2.21-.23-4.37-.61-6.47l80.07-32.52-55.18,112.93h-237.09Z" style="fill:#29357c;"/></g></svg>